<svg width="13" height="13" viewBox="0 0 13 13" fill="none" xmlns="http://www.w3.org/2000/svg">
<path d="M6.25 0.046875C6.43648 0.046875 6.61521 0.121068 6.74707 0.25293C6.87893 0.384791 6.95312 0.56352 6.95312 0.75V5.54688H11.75C11.9365 5.54688 12.1152 5.62107 12.2471 5.75293C12.3789 5.88479 12.4531 6.06352 12.4531 6.25C12.4531 6.43648 12.3789 6.61521 12.2471 6.74707C12.1152 6.87893 11.9365 6.95312 11.75 6.95312H6.95312V11.75C6.95312 11.9365 6.87893 12.1152 6.74707 12.2471C6.61521 12.3789 6.43648 12.4531 6.25 12.4531C6.06352 12.4531 5.88479 12.3789 5.75293 12.2471C5.62107 12.1152 5.54688 11.9365 5.54688 11.75V6.95312H0.75C0.56352 6.95312 0.384791 6.87893 0.25293 6.74707C0.121068 6.61521 0.046875 6.43648 0.046875 6.25C0.046875 6.06352 0.121068 5.88479 0.25293 5.75293C0.384791 5.62107 0.56352 5.54688 0.75 5.54688H5.54688V0.75C5.54688 0.56352 5.62107 0.384791 5.75293 0.25293C5.88479 0.121068 6.06352 0.046875 6.25 0.046875Z" fill="white" stroke="white" stroke-width="0.09375"/>
</svg>
