<svg width="10" height="10" viewBox="0 0 10 10" fill="none" xmlns="http://www.w3.org/2000/svg">
<path fill-rule="evenodd" clip-rule="evenodd" d="M4.91752 5.84381L8.68886 9.61514C8.81459 9.73658 8.983 9.80378 9.15779 9.80226C9.33259 9.80074 9.4998 9.73063 9.6234 9.60702C9.74701 9.48342 9.81712 9.31621 9.81864 9.14141C9.82016 8.96661 9.75296 8.79821 9.63152 8.67247L5.86019 4.90114L9.63152 1.12981C9.75296 1.00407 9.82016 0.835672 9.81864 0.660874C9.81712 0.486076 9.74701 0.318868 9.6234 0.195262C9.4998 0.0716569 9.33259 0.00154415 9.15779 2.52018e-05C8.983 -0.00149374 8.81459 0.0657025 8.68886 0.187141L4.91752 3.95847L1.14619 0.187141C1.01989 0.0687044 0.852467 0.00405153 0.679345 0.00686273C0.506224 0.00967392 0.340987 0.0797288 0.218598 0.202204C0.09621 0.324679 0.0262719 0.489965 0.0235831 0.663089C0.0208944 0.836213 0.0856658 1.00359 0.204192 1.12981L3.97486 4.90114L0.203525 8.67247C0.139852 8.73397 0.0890639 8.80754 0.0541246 8.88887C0.0191852 8.97021 0.000794382 9.05769 2.51714e-05 9.14621C-0.000744039 9.23473 0.0161236 9.32251 0.0496442 9.40444C0.0831648 9.48637 0.132667 9.56081 0.195262 9.62341C0.257857 9.686 0.332292 9.7355 0.414223 9.76902C0.496154 9.80254 0.58394 9.81941 0.672459 9.81864C0.760979 9.81787 0.848459 9.79948 0.929795 9.76454C1.01113 9.7296 1.08469 9.67881 1.14619 9.61514L4.91752 5.84381Z" fill="#323749"/>
</svg>
